<svg width="1024" height="1024" viewBox="0 0 1024 1024" fill="none" xmlns="http://www.w3.org/2000/svg">
<rect width="1024" height="1024" rx="165" fill="#F1E3D3"/>
<path d="M819.036 342.888L857.241 430.73L819.036 518.571L725.333 555.537L631.629 518.571L593.424 430.73L631.629 342.888L725.333 305.923L819.036 342.888Z" fill="#FFC107" stroke="black" stroke-width="45"/>
<path d="M739.991 725.437L707.497 815.548L619.426 853.221L525.902 815.804L483.115 724.611L515.609 634.5L603.68 596.827L697.204 634.246L739.991 725.437Z" fill="#FF7600" stroke="black" stroke-width="45"/>
<path d="M380.179 516.263L418.384 604.105L380.179 691.947L286.476 728.913L192.772 691.947L154.567 604.105L192.772 516.263L286.476 479.299L380.179 516.263Z" fill="#DC2525" stroke="black" stroke-width="45"/>
<path d="M539.377 309.705L509.394 400.682L422.402 440.784L327.877 405.974L282.576 316.003L312.559 225.026L399.551 184.924L494.076 219.735L539.377 309.705Z" fill="#06923E" stroke="black" stroke-width="45"/>
</svg>
